<svg xmlns="http://www.w3.org/2000/svg" viewBox="0 0 258.61 175.4"><defs><style>.cls-1{fill:#1e3a8a;}</style></defs><g id="Capa_2" data-name="Capa 2"><g id="Capa_1-2" data-name="Capa 1"><path id="Solo_Logo_Azul" data-name="Solo Logo Azul" class="cls-1" d="M0,175.4H34.38q16.88-41.18,33.75-82.35c.94-2.3,1.88-4.61,2.83-6.91,1,2.32,1.92,4.63,2.89,7L91.94,136.5,106,170.26a2.85,2.85,0,0,0,5.28,0q5.5-13.2,11-26.39l3.18-7.6q3.8-9.1,7.6-18.2l33.65-80.51L176,60.29l23.45,57.79H152.51L142,143.88h67.82l12.79,31.52h36Q226,96.35,193.4,17.28L186.28,0h-39L108.76,95,97.35,66.9l-8-19.6a22.23,22.23,0,0,0-1.84-1.66A25.94,25.94,0,0,0,51.23,49.1Q48.11,56.77,45,64.43Z"/></g></g></svg>